<?xml version="1.0" encoding="UTF-8"?>
<svg version="1.1" xmlns="http://www.w3.org/2000/svg" width="300" height="189">
<path d="M0 0 C99 0 198 0 300 0 C300 62.37 300 124.74 300 189 C201 189 102 189 0 189 C0 126.63 0 64.26 0 0 Z " fill="#FDFEFD" transform="translate(0,0)"/>
<path d="M0 0 C-1.28519565 2.86697492 -2.57129254 4.97607712 -5 7 C-5.66 7 -6.32 7 -7 7 C-7 7.99 -7 8.98 -7 10 C-9.31 10.33 -11.62 10.66 -14 11 C-8.555 12.485 -8.555 12.485 -3 14 C-3 14.99 -3 15.98 -3 17 C-12.9 17.495 -12.9 17.495 -23 18 C-20.36 18.33 -17.72 18.66 -15 19 C-17.0668948 22.1003422 -17.41499719 22.43737624 -20.6875 23.5625 C-21.74517578 23.92988281 -21.74517578 23.92988281 -22.82421875 24.3046875 C-25.86614775 25.27679408 -28.91743161 26.16513773 -32 27 C-32 27.66 -32 28.32 -32 29 C-31.2575 28.484375 -30.515 27.96875 -29.75 27.4375 C-27 26 -27 26 -24.828125 26.41015625 C-24.22484375 26.60480469 -23.6215625 26.79945312 -23 27 C-34.04109589 37 -34.04109589 37 -39 37 C-39 38.32 -39 39.64 -39 41 C-38.071875 40.34 -37.14375 39.68 -36.1875 39 C-33 37 -33 37 -30 37 C-31.46204865 40.15456802 -33.21983324 42.85024452 -35.3125 45.625 C-35.88613281 46.40101562 -36.45976563 47.17703125 -37.05078125 47.9765625 C-39.22873024 50.23743941 -41.03665166 51.0513205 -44 52 C-43.67 53.98 -43.34 55.96 -43 58 C-42.59007813 57.4225 -42.18015625 56.845 -41.7578125 56.25 C-40.94957031 55.13625 -40.94957031 55.13625 -40.125 54 C-39.59132813 53.2575 -39.05765625 52.515 -38.5078125 51.75 C-38.01023437 51.1725 -37.51265625 50.595 -37 50 C-36.34 50 -35.68 50 -35 50 C-35.88881569 55.68842042 -37.42059206 61.14983641 -41.1875 65.5625 C-43.59536171 68.80065885 -43.30862172 71.06507312 -43 75 C-42.66226563 74.28972656 -42.32453125 73.57945313 -41.9765625 72.84765625 C-41.53054687 71.92855469 -41.08453125 71.00945312 -40.625 70.0625 C-40.18414062 69.14597656 -39.74328125 68.22945313 -39.2890625 67.28515625 C-38 65 -38 65 -36 64 C-35.66683288 70.60164477 -36.02118119 75.80795207 -38.3984375 81.984375 C-39.25576668 84.85698446 -38.80168073 87.1576774 -38 90 C-37.01 86.37 -36.02 82.74 -35 79 C-34.34 79 -33.68 79 -33 79 C-30.93335967 85.45825102 -30.89328361 91.2602155 -31.125 98.0234375 C-31.33132136 101.11988896 -31.33132136 101.11988896 -29 103 C-28.67 99.37 -28.34 95.74 -28 92 C-22.45218814 98.31302728 -20.5666767 103.76685721 -21 112 C-19.68 112.33 -18.36 112.66 -17 113 C-17.99 108.05 -17.99 108.05 -19 103 C-6.675 113.15 -6.675 113.15 -6 119 C-4.68 119 -3.36 119 -2 119 C-3.2375 117.576875 -3.2375 117.576875 -4.5 116.125 C-7 113.25 -7 113.25 -7 111 C-1.64538041 112.5398906 3.01746736 113.89301321 7 118 C7.8125 120.25 7.8125 120.25 8 122 C10.31 122 12.62 122 15 122 C15.20625 121.2575 15.4125 120.515 15.625 119.75 C17.44281231 116.11437538 19.4375655 114.88599474 23 113 C25.875 112.75 25.875 112.75 28 113 C27.42655063 115.86724686 27.1385485 116.8614515 25 119 C26.65 119 28.3 119 30 119 C30.2784375 117.4840625 30.2784375 117.4840625 30.5625 115.9375 C31.73634137 111.69095623 34.24322758 109.38609054 37.44140625 106.48046875 C39.10998267 105.06378718 39.10998267 105.06378718 40 103 C40.66 103 41.32 103 42 103 C41.46274105 106.37705625 40.88935377 109.696686 40 113 C43.19745014 111.35033312 43.19745014 111.35033312 43.625 108.57421875 C43.74875 107.62160156 43.8725 106.66898437 44 105.6875 C44.6638952 101.44963562 45.43967635 98.52044502 48 95 C48.68096422 93.67391178 49.35330586 92.34313399 50 91 C50.66 91 51.32 91 52 91 C52.495 95.95 52.495 95.95 53 101 C53.03738281 100.07058594 53.07476562 99.14117187 53.11328125 98.18359375 C53.76625659 85.90509666 53.76625659 85.90509666 57 80 C59.6855594 82.6855594 60.06049974 85.37621328 61 89 C61.68493373 86.14221967 61.68493373 86.14221967 62 83 C61.34 82.01 60.68 81.02 60 80 C59.69933846 77.24582682 59.49074701 74.57354853 59.375 71.8125 C59.33632812 71.06291016 59.29765625 70.31332031 59.2578125 69.54101562 C59.16371784 67.69440801 59.08077681 65.8472381 59 64 C61.60637175 66.5375042 63.67310532 68.57218874 65 72 C65 72.99 65 73.98 65 75 C65.66 75 66.32 75 67 75 C67.33 76.32 67.66 77.64 68 79 C68.67095703 78.38511719 68.67095703 78.38511719 69.35546875 77.7578125 C72.73744485 74.74359926 75.579668 72.33949455 80 71 C78.35104067 77.5958373 74.7530274 82.95123542 69.3125 87 C67 88 67 88 64 88 C63.34 90.31 62.68 92.62 62 95 C63.010625 94.360625 64.02125 93.72125 65.0625 93.0625 C68.75219924 90.93151044 71.77860255 90.34460387 76 90 C68.476159 100.99227834 68.476159 100.99227834 61.76171875 102.50390625 C60.97410156 102.64699219 60.18648438 102.79007812 59.375 102.9375 C55.78619282 103.5971627 55.13593397 103.86075057 52.4375 106.625 C51.963125 107.40875 51.48875 108.1925 51 109 C51.66 108.67 52.32 108.34 53 108 C55.2072923 107.92907158 57.41667452 107.91584975 59.625 107.9375 C60.81351562 107.94652344 62.00203125 107.95554687 63.2265625 107.96484375 C64.59941406 107.98224609 64.59941406 107.98224609 66 108 C63.85946942 110.34120532 61.85334961 111.75236591 59 113.125 C58.319375 113.45757812 57.63875 113.79015625 56.9375 114.1328125 C52.09795817 116.29889775 48.02401564 115.99951028 42.8125 115.83984375 C39.79070215 115.77372706 39.79070215 115.77372706 37 118 C37.91523438 118.13277344 38.83046875 118.26554687 39.7734375 118.40234375 C41.55621094 118.66724609 41.55621094 118.66724609 43.375 118.9375 C45.15003906 119.19853516 45.15003906 119.19853516 46.9609375 119.46484375 C50 120 50 120 52 121 C52 121.66 52 122.32 52 123 C44.11110183 125.33745131 36.70194287 126.42308572 29 123 C25.79129767 122.83242243 25.79129767 122.83242243 23 123 C25.68232661 124.78821774 28.30288961 126.20142604 31.1875 127.625 C32.08855469 128.07101563 32.98960937 128.51703125 33.91796875 128.9765625 C34.60503906 129.31429687 35.29210937 129.65203125 36 130 C36 130.33 36 130.66 36 131 C28.52662583 131.57242866 22.66678029 130.51288039 16 127 C15.34 126.34 14.68 125.68 14 125 C11.67171371 124.41389629 11.67171371 124.41389629 9 125 C6.99651034 126.66247014 4.99665598 128.32932867 3 130 C-2.15002686 131.52159885 -7.66441858 131.09490165 -13 131 C-10.79028876 128.7151711 -8.98746393 127.17687973 -6 126 C-4.68 126 -3.36 126 -2 126 C-1.505 124.515 -1.505 124.515 -1 123 C-5.64586892 123.48484276 -5.64586892 123.48484276 -10 125 C-16.35198686 125.45296092 -21.99722901 125.13431857 -28 123 C-28 122.34 -28 121.68 -28 121 C-22.72 120.34 -17.44 119.68 -12 119 C-16.59565594 117.16173762 -19.02269088 116.76230434 -23.8125 116.625 C-31.43496102 116.17802846 -37.24468728 114.27570332 -43 109 C-43 108.34 -43 107.68 -43 107 C-36.07 107.495 -36.07 107.495 -29 108 C-31.43523761 103.91535187 -31.43523761 103.91535187 -34.26953125 103.34765625 C-35.52830078 103.20650391 -35.52830078 103.20650391 -36.8125 103.0625 C-43.34451213 101.97858532 -46.01043983 99.25134441 -50.375 94.3125 C-52 92 -52 92 -52 90 C-50.39566191 90.47859241 -48.79153584 90.95789558 -47.1875 91.4375 C-46.29417969 91.70433594 -45.40085937 91.97117187 -44.48046875 92.24609375 C-42.64526945 92.80387873 -40.81966274 93.39344575 -39 94 C-39.99 91.03 -39.99 91.03 -41 88 C-41.86625 87.979375 -42.7325 87.95875 -43.625 87.9375 C-49.54943013 86.29182496 -52.33993408 81.28512833 -55.375 76.1875 C-57 73 -57 73 -57 71 C-52.40693504 72.4859916 -49.56430755 74.85014682 -46 78 C-46.19777221 73.84678359 -46.93626758 71.76025756 -49.9375 69 C-52.93236822 66.24213574 -54.15219899 64.06944485 -55 60 C-55.125 56.625 -55.125 56.625 -55 54 C-51.64564078 55.38801071 -49.88709697 56.88629 -48 60 C-48 60.99 -48 61.98 -48 63 C-47.34 63 -46.68 63 -46 63 C-46 60.03 -46 57.06 -46 54 C-46.99 53.67 -47.98 53.34 -49 53 C-51.45391569 49.31912647 -51.22802759 46.55644412 -51.125 42.3125 C-51.11597656 41.61060547 -51.10695313 40.90871094 -51.09765625 40.18554688 C-51.07413704 38.45688475 -51.03826713 36.72839855 -51 35 C-45.47321429 40.38392857 -45.47321429 40.38392857 -44 44 C-44.165 43.01 -44.33 42.02 -44.5 41 C-45.57634865 33.11732898 -44.87022936 27.38058977 -42 20 C-41.34 20.33 -40.68 20.66 -40 21 C-39.3671875 23.50390625 -39.3671875 23.50390625 -38.875 26.5625 C-38.70742187 27.57441406 -38.53984375 28.58632813 -38.3671875 29.62890625 C-38.24601562 30.41136719 -38.12484375 31.19382812 -38 32 C-36.5801457 28.45036424 -35.9977154 26.04645347 -36.1875 22.1875 C-36.3783427 16.99456958 -33.7451258 13.23533695 -31 9 C-30.34 9 -29.68 9 -29 9 C-29 12.63 -29 16.26 -29 20 C-25.67789162 17.30258666 -25.67789162 17.30258666 -25.625 13.625 C-24.85649926 9.16769568 -23.37622263 7.89390511 -20 5 C-19.443125 4.401875 -18.88625 3.80375 -18.3125 3.1875 C-17 2 -17 2 -15 2 C-15.33 4.31 -15.66 6.62 -16 9 C-15.2575 8.236875 -14.515 7.47375 -13.75 6.6875 C-9.25252485 2.2922402 -6.49052459 0 0 0 Z " fill="#AFCE67" transform="translate(139,6)"/>
<path d="M0 0 C4.14693088 0.60984278 7.41325059 1.81676123 11 4 C12.05104383 5.63495707 13.05988318 7.29883624 14 9 C14.99 9.33 15.98 9.66 17 10 C16.67 9.236875 16.34 8.47375 16 7.6875 C15 5 15 5 15 2 C18.82163907 3.55696407 21.18618495 6.03408684 24 9 C24.33 9.33 24.66 9.66 25 10 C25.12375 11.134375 25.2475 12.26875 25.375 13.4375 C25.58125 14.613125 25.7875 15.78875 26 17 C26.99 17.66 27.98 18.32 29 19 C29 15.7 29 12.4 29 9 C29.66 9 30.32 9 31 9 C34.91225177 13.13750263 36.31628999 17.10596805 36.1875 22.75 C36.11917969 23.65234375 36.05085938 24.5546875 35.98046875 25.484375 C35.81827748 28.37031499 35.81827748 28.37031499 38 32 C38.66 28.37 39.32 24.74 40 21 C40.99 20.67 41.98 20.34 43 20 C44.9163384 26.82695556 46.28749764 32.42500472 43 39 C43.495 41.475 43.495 41.475 44 44 C45.65 41.03 47.3 38.06 49 35 C49.66 35 50.32 35 51 35 C51.08117951 37.41734542 51.14056926 39.83194949 51.1875 42.25 C51.21263672 42.93191406 51.23777344 43.61382812 51.26367188 44.31640625 C51.31021876 47.51262602 51.18591611 49.66692213 49.61328125 52.484375 C48 54 48 54 46 54 C46.495 57.96 46.495 57.96 47 62 C47.598125 61.071875 48.19625 60.14375 48.8125 59.1875 C51.85365854 54.75609756 51.85365854 54.75609756 54 53 C54.66 53 55.32 53 56 53 C55.82905775 59.71336821 54.53683505 64.88705891 50 70 C46.6875 72 46.6875 72 44 73 C43.73316406 72.13503906 43.46632812 71.27007812 43.19140625 70.37890625 C41.64258273 65.98634119 39.50565442 62.01685449 37.33984375 57.90234375 C36.0982392 55.21280387 35.4333474 52.91573248 35 50 C36.32 50.66 37.64 51.32 39 52 C39 52.66 39 53.32 39 54 C39.99 54.33 40.98 54.66 42 55 C42 54.01 42 53.02 42 52 C41.29875 51.484375 40.5975 50.96875 39.875 50.4375 C35.78759267 46.97208944 33.57971782 42.64526508 31 38 C34.81583379 38.65179251 37.02881405 39.46898975 40 42 C38.53634916 38.20595537 36.70129353 36.93864471 33.1875 35 C29.53419381 32.90635419 26.09725342 30.89076986 23 28 C23 27.34 23 26.68 23 26 C26.02419525 26.58803797 29.01758453 27.22678118 32 28 C31.67 27.34 31.34 26.68 31 26 C29.11879431 25.52969858 27.23570395 25.06562915 25.34375 24.640625 C21.37022232 23.55452743 17.70939679 21.76883273 14 20 C14 19.67 14 19.34 14 19 C16.97 18.67 19.94 18.34 23 18 C21.48578999 16.48578999 20.07527232 16.78690144 17.96484375 16.68359375 C17.15595703 16.64169922 16.34707031 16.59980469 15.51367188 16.55664062 C14.66353516 16.51732422 13.81339844 16.47800781 12.9375 16.4375 C12.08349609 16.39431641 11.22949219 16.35113281 10.34960938 16.30664062 C8.23327963 16.20023298 6.11666187 16.09958269 4 16 C4 15.34 4 14.68 4 14 C6.64 13.01 9.28 12.02 12 11 C11.43410156 10.67386719 10.86820313 10.34773438 10.28515625 10.01171875 C9.55167969 9.57472656 8.81820312 9.13773438 8.0625 8.6875 C7.33160156 8.25824219 6.60070312 7.82898438 5.84765625 7.38671875 C4 6 4 6 3 3 C2.01 2.67 1.02 2.34 0 2 C0 1.34 0 0.68 0 0 Z " fill="#AFCE68" transform="translate(162,6)"/>
<path d="M0 0 C-1.28519565 2.86697492 -2.57129254 4.97607712 -5 7 C-5.66 7 -6.32 7 -7 7 C-7 7.99 -7 8.98 -7 10 C-9.31 10.33 -11.62 10.66 -14 11 C-8.555 12.485 -8.555 12.485 -3 14 C-3 14.99 -3 15.98 -3 17 C-12.9 17.495 -12.9 17.495 -23 18 C-20.36 18.33 -17.72 18.66 -15 19 C-17.0668948 22.1003422 -17.41499719 22.43737624 -20.6875 23.5625 C-21.74517578 23.92988281 -21.74517578 23.92988281 -22.82421875 24.3046875 C-25.86614775 25.27679408 -28.91743161 26.16513773 -32 27 C-32 27.66 -32 28.32 -32 29 C-31.2575 28.484375 -30.515 27.96875 -29.75 27.4375 C-27 26 -27 26 -24.828125 26.41015625 C-23.92320313 26.70212891 -23.92320313 26.70212891 -23 27 C-34.04109589 37 -34.04109589 37 -39 37 C-38.67 38.65 -38.34 40.3 -38 42 C-38.99 42.66 -39.98 43.32 -41 44 C-43 43 -43 43 -44.125 40.4375 C-46.06947709 32.79848287 -44.7904819 27.17552489 -42 20 C-41.34 20.33 -40.68 20.66 -40 21 C-39.3671875 23.50390625 -39.3671875 23.50390625 -38.875 26.5625 C-38.70742187 27.57441406 -38.53984375 28.58632813 -38.3671875 29.62890625 C-38.24601562 30.41136719 -38.12484375 31.19382812 -38 32 C-36.5801457 28.45036424 -35.9977154 26.04645347 -36.1875 22.1875 C-36.3783427 16.99456958 -33.7451258 13.23533695 -31 9 C-30.34 9 -29.68 9 -29 9 C-29 12.63 -29 16.26 -29 20 C-25.67789162 17.30258666 -25.67789162 17.30258666 -25.625 13.625 C-24.85649926 9.16769568 -23.37622263 7.89390511 -20 5 C-19.443125 4.401875 -18.88625 3.80375 -18.3125 3.1875 C-17 2 -17 2 -15 2 C-15.33 4.31 -15.66 6.62 -16 9 C-15.2575 8.236875 -14.515 7.47375 -13.75 6.6875 C-9.25252485 2.2922402 -6.49052459 0 0 0 Z " fill="#AECD65" transform="translate(139,6)"/>
<path d="M0 0 C13 0 13 0 18 3 C19.56941198 4.56941198 19.2449847 6.14134994 19.3125 8.3125 C19.28017158 11.69620772 19.1986934 12.71908864 17.1875 15.5625 C15 17 15 17 12 17 C12.5053125 17.90363281 13.010625 18.80726563 13.53125 19.73828125 C14.1878303 20.92950551 14.84406218 22.12092185 15.5 23.3125 C16.00080078 24.20485352 16.00080078 24.20485352 16.51171875 25.11523438 C18.06825114 27.95828844 19 29.70660988 19 33 C17.203125 32.87109375 17.203125 32.87109375 15 32 C13.296875 29.34765625 13.296875 29.34765625 11.75 26.0625 C11.22921875 24.98097656 10.7084375 23.89945313 10.171875 22.78515625 C9 20 9 20 9 18 C7.02 18 5.04 18 3 18 C3 22.95 3 27.9 3 33 C2.01 33 1.02 33 0 33 C0 22.11 0 11.22 0 0 Z " fill="#557C5D" transform="translate(197,139)"/>
<path d="M0 0 C2.78968835 2.15749279 3.86972798 3.34684307 4.56640625 6.83984375 C4.55595972 15.12394226 4.55595972 15.12394226 1.9375 19.25 C-1.67186709 21.40026125 -3.86337199 21.46829751 -8 21 C-8.66 20.67 -9.32 20.34 -10 20 C-10 23.63 -10 27.26 -10 31 C-11.32 31 -12.64 31 -14 31 C-14 20.77 -14 10.54 -14 0 C-5.15277778 -1.26388889 -5.15277778 -1.26388889 0 0 Z " fill="#739379" transform="translate(143,151)"/>
<path d="M0 0 C0.66 0 1.32 0 2 0 C2 11.55 2 23.1 2 35 C0.68 34.67 -0.64 34.34 -2 34 C-2.99 34.495 -2.99 34.495 -4 35 C-7.81771939 35.50902925 -9.55617894 35.27015195 -12.875 33.25 C-16.0833519 28.34310886 -16.10714499 23.6927668 -15 18 C-13.2632435 15.07774419 -12.18301261 14.59150631 -9 13 C-3.80392157 13.19607843 -3.80392157 13.19607843 -2 15 C-1.93941406 14.00097656 -1.87882812 13.00195312 -1.81640625 11.97265625 C-1.73261719 10.68230469 -1.64882812 9.39195312 -1.5625 8.0625 C-1.48128906 6.77472656 -1.40007812 5.48695313 -1.31640625 4.16015625 C-1 1 -1 1 0 0 Z " fill="#4D7755" transform="translate(93,137)"/>
<path d="M0 0 C2.94228199 2.2450087 3.89247961 3.41271619 4.56640625 7.09375 C4.56511719 8.2178125 4.56382812 9.341875 4.5625 10.5 C4.58441406 11.6240625 4.60632813 12.748125 4.62890625 13.90625 C4 17 4 17 1.68359375 19.37109375 C-1.87457575 21.53085602 -3.90393792 21.65829569 -8 21 C-10.9375 19.25 -10.9375 19.25 -13 16 C-13.85994181 11.28334945 -14.35977338 6.36045169 -11.890625 2.07421875 C-8.08740602 -1.55519722 -4.7765799 -1.50373812 0 0 Z " fill="#4E7857" transform="translate(232,151)"/>
<path d="M0 0 C4.13830989 0.30096799 6.51847024 0.67898016 10 3 C10.53625 2.484375 11.0725 1.96875 11.625 1.4375 C14 0 14 0 17 0.125 C21.74507227 1.50897941 21.74507227 1.50897941 24 4 C24.50635255 7.07228633 24.37478791 10.08460055 24.25 13.1875 C24.23195313 14.03248047 24.21390625 14.87746094 24.1953125 15.74804688 C24.14820586 17.83251573 24.07646233 19.91640144 24 22 C23.01 22 22.02 22 21 22 C20.92652344 20.30230469 20.92652344 20.30230469 20.8515625 18.5703125 C20.77653486 17.08851661 20.70098703 15.606747 20.625 14.125 C20.5940625 13.37863281 20.563125 12.63226563 20.53125 11.86328125 C20.44356169 7.46526812 20.44356169 7.46526812 18 4 C15.5 3.66666667 15.5 3.66666667 13 4 C10.06552643 6.93447357 10.53841577 10.18259456 10.375 14.125 C10.33632813 14.87910156 10.29765625 15.63320312 10.2578125 16.41015625 C10.16348969 18.27303184 10.08065338 20.13648255 10 22 C9.01 22 8.02 22 7 22 C6.67 16.39 6.34 10.78 6 5 C3.03 4.505 3.03 4.505 0 4 C-2.93447357 6.93447357 -2.46158423 10.18259456 -2.625 14.125 C-2.66367188 14.87910156 -2.70234375 15.63320312 -2.7421875 16.41015625 C-2.83651031 18.27303184 -2.91934662 20.13648255 -3 22 C-3.99 22 -4.98 22 -6 22 C-6 15.07 -6 8.14 -6 1 C-4.68 1.33 -3.36 1.66 -2 2 C-1.34 1.34 -0.68 0.68 0 0 Z " fill="#537A5A" transform="translate(247,150)"/>
<path d="M0 0 C3.1796875 1.44140625 3.1796875 1.44140625 6 4 C6.74418394 7.11043279 6.5685109 10.07443647 6.375 13.25 C6.34792969 14.09046875 6.32085937 14.9309375 6.29296875 15.796875 C6.22244109 17.86568634 6.11482367 19.93317393 6 22 C5.01 22 4.02 22 3 22 C3 21.34 3 20.68 3 20 C2.01 20.66 1.02 21.32 0 22 C-6.32258065 22.4516129 -6.32258065 22.4516129 -10 20 C-10.5 16.5625 -10.5 16.5625 -10 13 C-7.09033541 10.18126243 -4.58744626 9.84020832 -0.6875 9.8125 C1.1378125 9.9053125 1.1378125 9.9053125 3 10 C1.91215032 6.75016865 1.91215032 6.75016865 0 4 C-1.51928038 3.92820036 -3.04167482 3.91607993 -4.5625 3.9375 C-5.80193359 3.95103516 -5.80193359 3.95103516 -7.06640625 3.96484375 C-8.02353516 3.98224609 -8.02353516 3.98224609 -9 4 C-8.67 3.01 -8.34 2.02 -8 1 C-5.13391871 -0.43304064 -3.18699217 -0.30644155 0 0 Z " fill="#567D5D" transform="translate(285,150)"/>
<path d="M0 0 C2.4375 1.6875 2.4375 1.6875 4 4 C4.3125 7.1875 4.3125 7.1875 4 10 C3 11 3 11 0.05859375 11.09765625 C-1.73384766 11.08025391 -1.73384766 11.08025391 -3.5625 11.0625 C-5.35880859 11.04896484 -5.35880859 11.04896484 -7.19140625 11.03515625 C-8.11824219 11.02355469 -9.04507813 11.01195312 -10 11 C-9.34 12.98 -8.68 14.96 -8 17 C-2.44506076 18.02703748 -2.44506076 18.02703748 3 17 C2.34 18.32 1.68 19.64 1 21 C-3.63547188 21.45445803 -6.94218162 21.60446764 -11.0625 19.25 C-13.93363788 14.43389774 -14.09176432 9.47388042 -13 4 C-8.85574508 -1.00870073 -6.314992 -1.41542924 0 0 Z " fill="#4E7756" transform="translate(164,151)"/>
<path d="M0 0 C2.6796875 1.44140625 2.6796875 1.44140625 5 4 C5.61604668 7.10428889 5.47241648 10.1008754 5.3125 13.25 C5.28994141 14.09046875 5.26738281 14.9309375 5.24414062 15.796875 C5.18537714 17.86534964 5.09569885 19.93290488 5 22 C4.38125 21.814375 3.7625 21.62875 3.125 21.4375 C0.95839822 20.76313824 0.95839822 20.76313824 -1 22 C-4.4375 22.3125 -4.4375 22.3125 -8 22 C-10 20.3125 -10 20.3125 -11 18 C-10.92509796 14.92901621 -10.44344796 13.51439964 -8.4375 11.1875 C-4.8580787 9.44367937 -1.95820158 9.80208992 2 10 C1.34 8.02 0.68 6.04 0 4 C-2.97 4 -5.94 4 -9 4 C-8.67 3.01 -8.34 2.02 -8 1 C-5.14675563 -0.42662219 -3.16545451 -0.31033868 0 0 Z " fill="#618669" transform="translate(110,150)"/>
<path d="M0 0 C2.6796875 1.44140625 2.6796875 1.44140625 5 4 C5.61604668 7.10428889 5.47241648 10.1008754 5.3125 13.25 C5.28994141 14.09046875 5.26738281 14.9309375 5.24414062 15.796875 C5.18537714 17.86534964 5.09569885 19.93290488 5 22 C4.38125 21.814375 3.7625 21.62875 3.125 21.4375 C0.95839822 20.76313824 0.95839822 20.76313824 -1 22 C-4.4375 22.3125 -4.4375 22.3125 -8 22 C-10 20.3125 -10 20.3125 -11 18 C-10.92509796 14.92901621 -10.44344796 13.51439964 -8.4375 11.1875 C-4.8580787 9.44367937 -1.95820158 9.80208992 2 10 C1.34 8.02 0.68 6.04 0 4 C-2.97 4 -5.94 4 -9 4 C-8.67 3.01 -8.34 2.02 -8 1 C-5.14675563 -0.42662219 -3.16545451 -0.31033868 0 0 Z " fill="#618669" transform="translate(68,150)"/>
<path d="M0 0 C0 0.99 0 1.98 0 3 C-0.85464844 2.98839844 -1.70929687 2.97679687 -2.58984375 2.96484375 C-4.24693359 2.95130859 -4.24693359 2.95130859 -5.9375 2.9375 C-7.59072266 2.92009766 -7.59072266 2.92009766 -9.27734375 2.90234375 C-11.91447634 2.68737429 -11.91447634 2.68737429 -13 4 C-13.41717279 6.41537838 -13.41717279 6.41537838 -13 9 C-10.23248472 11.88282842 -6.42355442 13.26256402 -2.8046875 14.83984375 C-0.52735474 16.30384338 0.09219176 17.46647395 1 20 C1.24636612 22.70017269 1.09065666 25.28030006 1 28 C0.34 28 -0.32 28 -1 28 C-1.33 28.99 -1.66 29.98 -2 31 C-5.44701297 32.72350648 -9.22370843 32.37111831 -13 32 C-16.0625 30.6875 -16.0625 30.6875 -18 29 C-18 28.01 -18 27.02 -18 26 C-14.125 26.875 -14.125 26.875 -13 28 C-8.98342857 28.22918242 -8.98342857 28.22918242 -5 28 C-2.71069764 26.11861241 -2.71069764 26.11861241 -2.625 23.0625 C-2.69600629 20.01201042 -2.69600629 20.01201042 -4.5 18.375 C-7.3539464 16.80532948 -10.24737796 15.34981677 -13.1953125 13.96484375 C-15 13 -15 13 -17 11 C-17.78837421 4.01725704 -17.78837421 4.01725704 -15.0625 0.5 C-10.08576017 -1.93758685 -5.20939364 -1.73646455 0 0 Z " fill="#547C5C" transform="translate(26,140)"/>
<path d="M0 0 C2.60637175 2.5375042 4.67310532 4.57218874 6 8 C6 8.99 6 9.98 6 11 C6.66 11 7.32 11 8 11 C8.33 12.32 8.66 13.64 9 15 C9.44730469 14.59007813 9.89460937 14.18015625 10.35546875 13.7578125 C13.73744485 10.74359926 16.579668 8.33949455 21 7 C19.44920455 13.20318178 16.296482 18.8064302 10.8984375 22.3984375 C5.82446809 25 5.82446809 25 3 25 C3.04125 24.071875 3.0825 23.14375 3.125 22.1875 C3.27136339 18.84190281 3.27136339 18.84190281 1 16 C0.69933846 13.24582682 0.49074701 10.57354853 0.375 7.8125 C0.33632812 7.06291016 0.29765625 6.31332031 0.2578125 5.54101562 C0.16371784 3.69440801 0.08077681 1.8472381 0 0 Z " fill="#AECD65" transform="translate(198,70)"/>
<path d="M0 0 C3.00947924 0.45142189 3.69818752 0.96397871 5.5 3.375 C5.86328125 6.00390625 5.86328125 6.00390625 5.8125 8.9375 C5.80863281 9.90816406 5.80476563 10.87882813 5.80078125 11.87890625 C5.5 14.375 5.5 14.375 3.5 16.375 C0 16.6875 0 16.6875 -3.5 16.375 C-5.64553377 13.15669935 -5.79583868 12.10713493 -5.8125 8.375 C-5.82925781 7.50875 -5.84601563 6.6425 -5.86328125 5.75 C-5.28625437 1.97760921 -3.72910824 0.55936624 0 0 Z " fill="#F4F6F5" transform="translate(86.5,152.625)"/>
<path d="M0 0 C2.99619126 0.44942869 3.68701899 0.9957871 5.5 3.375 C5.86328125 5.75 5.86328125 5.75 5.8125 8.375 C5.80863281 9.24125 5.80476562 10.1075 5.80078125 11 C5.5 13.375 5.5 13.375 3.5 16.375 C0 16.75 0 16.75 -3.5 16.375 C-5.64553377 13.15669935 -5.79583868 12.10713493 -5.8125 8.375 C-5.82925781 7.50875 -5.84601563 6.6425 -5.86328125 5.75 C-5.28625437 1.97760921 -3.72910824 0.55936624 0 0 Z " fill="#F6F7F6" transform="translate(227.5,152.625)"/>
<path d="M0 0 C2.9375 0.75 2.9375 0.75 4.9375 2.75 C5.53863883 6.79402489 5.46056462 10.55857504 3.8125 14.3125 C1.11773401 16.37848726 -0.76065888 16.17151163 -4.0625 15.75 C-6.76328753 13.04921247 -6.36144358 11.50964828 -6.375 7.75 C-6.39175781 6.6775 -6.40851563 5.605 -6.42578125 4.5 C-6.30589844 3.5925 -6.18601563 2.685 -6.0625 1.75 C-3.0625 -0.25 -3.0625 -0.25 0 0 Z " fill="#F4F6F4" transform="translate(139.0625,153.25)"/>
<path d="M0 0 C9.625 -0.25 9.625 -0.25 13 2 C13.66079024 8.05724389 13.66079024 8.05724389 11.80078125 10.7109375 C9.37003001 12.45095465 7.76927755 12.30269913 4.8125 12.1875 C3.224375 12.125625 1.63625 12.06375 0 12 C0 8.04 0 4.08 0 0 Z " fill="#F5F7F5" transform="translate(200,142)"/>
<path d="M0 0 C4.29 0 8.58 0 13 0 C12.67 0.66 12.34 1.32 12 2 C9.03 2 6.06 2 3 2 C3 6.62 3 11.24 3 16 C4.32 16.33 5.64 16.66 7 17 C5.68 17.33 4.36 17.66 3 18 C3 22.95 3 27.9 3 33 C2.01 33 1.02 33 0 33 C0 22.11 0 11.22 0 0 Z " fill="#507857" transform="translate(197,139)"/>
<path d="M0 0 C0.99 0 1.98 0 3 0 C3 3.3 3 6.6 3 10 C5.31 10 7.62 10 10 10 C10 10.66 10 11.32 10 12 C7.69 12 5.38 12 3 12 C3.33 16.95 3.66 21.9 4 27 C5.98 27.33 7.96 27.66 10 28 C10 28.99 10 29.98 10 31 C4.65291191 31.48609892 4.65291191 31.48609892 1.82128906 29.37792969 C-0.53912395 26.29610359 -0.46328362 24.55403202 -0.390625 20.703125 C-0.37773437 19.49785156 -0.36484375 18.29257813 -0.3515625 17.05078125 C-0.31804688 15.79652344 -0.28453125 14.54226562 -0.25 13.25 C-0.23195313 11.98027344 -0.21390625 10.71054688 -0.1953125 9.40234375 C-0.14817153 6.26746923 -0.08237664 3.1341144 0 0 Z " fill="#416D4A" transform="translate(31,141)"/>
<path d="M0 0 C-1.28519565 2.86697492 -2.57129254 4.97607712 -5 7 C-5.66 7 -6.32 7 -7 7 C-7 7.99 -7 8.98 -7 10 C-9.31 10.33 -11.62 10.66 -14 11 C-8.555 12.485 -8.555 12.485 -3 14 C-3 14.99 -3 15.98 -3 17 C-9.27 17 -15.54 17 -22 17 C-22 16.67 -22 16.34 -22 16 C-17.38 16 -12.76 16 -8 16 C-8 15.34 -8 14.68 -8 14 C-10.64 13.67 -13.28 13.34 -16 13 C-16 12.34 -16 11.68 -16 11 C-16.66 11 -17.32 11 -18 11 C-17.67 10.01 -17.34 9.02 -17 8 C-16.401875 7.87625 -15.80375 7.7525 -15.1875 7.625 C-12.73695018 7.15425708 -12.73695018 7.15425708 -11.0625 4.5625 C-7.78699095 0.49292815 -5.12604004 0 0 0 Z " fill="#D2E3AA" transform="translate(139,6)"/>
<path d="M0 0 C6.27495722 0.22818026 6.27495722 0.22818026 8.9375 3.0625 C9.288125 3.701875 9.63875 4.34125 10 5 C9.34 5 8.68 5 8 5 C8 10.61 8 16.22 8 22 C7.67 22 7.34 22 7 22 C6.67 16.39 6.34 10.78 6 5 C3.03 4.505 3.03 4.505 0 4 C-2.93447357 6.93447357 -2.46158423 10.18259456 -2.625 14.125 C-2.66367188 14.87910156 -2.70234375 15.63320312 -2.7421875 16.41015625 C-2.83651031 18.27303184 -2.91934662 20.13648255 -3 22 C-3.99 22 -4.98 22 -6 22 C-6 15.07 -6 8.14 -6 1 C-4.68 1.33 -3.36 1.66 -2 2 C-1.34 1.34 -0.68 0.68 0 0 Z " fill="#567D5E" transform="translate(247,150)"/>
<path d="M0 0 C2.6796875 1.44140625 2.6796875 1.44140625 5 4 C5.61604668 7.10428889 5.47241648 10.1008754 5.3125 13.25 C5.27866211 14.51070312 5.27866211 14.51070312 5.24414062 15.796875 C5.18537714 17.86534964 5.09569885 19.93290488 5 22 C4.34 22 3.68 22 3 22 C1.7619986 18.42355152 2.25073929 15.66305234 3 12 C0.03 12 -2.94 12 -6 12 C-6 11.34 -6 10.68 -6 10 C-3.36 10 -0.72 10 2 10 C1.34 8.02 0.68 6.04 0 4 C-2.97 4 -5.94 4 -9 4 C-8.67 3.01 -8.34 2.02 -8 1 C-5.14675563 -0.42662219 -3.16545451 -0.31033868 0 0 Z " fill="#487351" transform="translate(110,150)"/>
<path d="M0 0 C2.6796875 1.44140625 2.6796875 1.44140625 5 4 C5.61604668 7.10428889 5.47241648 10.1008754 5.3125 13.25 C5.27866211 14.51070312 5.27866211 14.51070312 5.24414062 15.796875 C5.18537714 17.86534964 5.09569885 19.93290488 5 22 C4.34 22 3.68 22 3 22 C1.7619986 18.42355152 2.25073929 15.66305234 3 12 C0.03 12 -2.94 12 -6 12 C-6 11.34 -6 10.68 -6 10 C-3.36 10 -0.72 10 2 10 C1.34 8.02 0.68 6.04 0 4 C-2.97 4 -5.94 4 -9 4 C-8.67 3.01 -8.34 2.02 -8 1 C-5.14675563 -0.42662219 -3.16545451 -0.31033868 0 0 Z " fill="#487351" transform="translate(68,150)"/>
<path d="M0 0 C0 0.66 0 1.32 0 2 C-1.7015625 2.433125 -1.7015625 2.433125 -3.4375 2.875 C-4.613125 3.24625 -5.78875 3.6175 -7 4 C-8.52106634 7.04213267 -8.37429338 10.28047572 -8.5625 13.625 C-8.60568359 14.33140625 -8.64886719 15.0378125 -8.69335938 15.765625 C-8.79944751 17.51018537 -8.90022889 19.25506697 -9 21 C-9.99 21 -10.98 21 -12 21 C-12 14.07 -12 7.14 -12 0 C-4.125 -1.125 -4.125 -1.125 0 0 Z " fill="#5C8264" transform="translate(184,151)"/>
<path d="M0 0 C0.763125 0.20625 1.52625 0.4125 2.3125 0.625 C2.3125 1.285 2.3125 1.945 2.3125 2.625 C1.178125 2.934375 0.04375 3.24375 -1.125 3.5625 C-4.47525099 4.25424531 -4.47525099 4.25424531 -5.6875 5.625 C-5.92428716 8.31735776 -6.10948025 10.98998156 -6.25 13.6875 C-6.29318359 14.44611328 -6.33636719 15.20472656 -6.38085938 15.98632812 C-6.48723633 17.86565438 -6.58789934 19.74530244 -6.6875 21.625 C-7.6775 21.625 -8.6675 21.625 -9.6875 21.625 C-9.6875 14.695 -9.6875 7.765 -9.6875 0.625 C-8.3675 0.955 -7.0475 1.285 -5.6875 1.625 C-2.6875 -0.375 -2.6875 -0.375 0 0 Z " fill="#567D5D" transform="translate(54.6875,150.375)"/>
<path d="M0 0 C4.14693088 0.60984278 7.41325059 1.81676123 11 4 C12.75 6.5625 12.75 6.5625 14 9 C14.66 9.66 15.32 10.32 16 11 C16 11.66 16 12.32 16 13 C13.36 13.33 10.72 13.66 8 14 C8 14.66 8 15.32 8 16 C6.68 16 5.36 16 4 16 C4 15.34 4 14.68 4 14 C6.64 13.01 9.28 12.02 12 11 C11.43410156 10.67386719 10.86820313 10.34773438 10.28515625 10.01171875 C9.55167969 9.57472656 8.81820312 9.13773438 8.0625 8.6875 C7.33160156 8.25824219 6.60070312 7.82898438 5.84765625 7.38671875 C4 6 4 6 3 3 C2.01 2.67 1.02 2.34 0 2 C0 1.34 0 0.68 0 0 Z " fill="#B3D06E" transform="translate(162,6)"/>
<path d="M0 0 C1.125 3.75 1.125 3.75 0 6 C0.66 6 1.32 6 2 6 C2 6.66 2 7.32 2 8 C4.64 8.33 7.28 8.66 10 9 C10 9.66 10 10.32 10 11 C2.08 11.495 2.08 11.495 -6 12 C-6 6 -6 6 -4.6875 4.1015625 C-2.34375 2.05078125 -2.34375 2.05078125 0 0 Z " fill="#A9CA5B" transform="translate(121,11)"/>
<path d="M0 0 C3 2 3 2 3.4765625 4.05859375 C3.55003906 5.23615234 3.55003906 5.23615234 3.625 6.4375 C3.82026381 9.25952696 4.09380431 11.28141293 5 14 C7.3431213 13.74438677 9.67843403 13.40729228 12 13 C13.14814997 10.70370006 13.30769809 8.92301914 13.5625 6.375 C13.64628906 5.55773437 13.73007813 4.74046875 13.81640625 3.8984375 C13.87699219 3.27195313 13.93757812 2.64546875 14 2 C14.33 2 14.66 2 15 2 C15.27585566 3.93398808 15.51987415 5.87253909 15.75 7.8125 C15.95882812 9.43091797 15.95882812 9.43091797 16.171875 11.08203125 C16 14 16 14 14.23046875 15.85546875 C10.91893746 17.55473087 8.66628008 17.51456563 5 17 C2.0625 15.25 2.0625 15.25 0 12 C-0.4092855 7.96486476 -0.28999239 4.04056058 0 0 Z " fill="#5A8062" transform="translate(219,155)"/>
<path d="M0 0 C0.33 0 0.66 0 1 0 C1 2.97 1 5.94 1 9 C0.67 7.68 0.34 6.36 0 5 C-3.3 5.66 -6.6 6.32 -10 7 C-10.33 8.65 -10.66 10.3 -11 12 C-8.03 12 -5.06 12 -2 12 C-2.99 13.485 -2.99 13.485 -4 15 C-8.34586828 15.39507893 -10.32003497 15.45331002 -14 13 C-14.5 9.5625 -14.5 9.5625 -14 6 C-10.99451666 2.99451666 -8.25631312 2.83817075 -4.1875 2.8125 C-2.79108728 2.86033796 -1.39482079 2.91795172 0 3 C0 2.01 0 1.02 0 0 Z " fill="#47714F" transform="translate(289,157)"/>
<path d="M0 0 C0.66 0.33 1.32 0.66 2 1 C1.67386719 1.55558594 1.34773438 2.11117187 1.01171875 2.68359375 C-0.14667773 5.33582971 -0.23529427 7.18180918 -0.1875 10.0625 C-0.18105469 10.91972656 -0.17460938 11.77695313 -0.16796875 12.66015625 C-0.08590034 15.15477968 -0.08590034 15.15477968 1 18 C3.31 18.33 5.62 18.66 8 19 C7.67 19.66 7.34 20.32 7 21 C3.22475519 21.43898196 1.40715801 21.24783531 -1.875 19.25 C-4.99364287 14.48031091 -5.10763472 9.5534513 -4 4 C-1.96484375 1.62890625 -1.96484375 1.62890625 0 0 Z " fill="#64886B" transform="translate(82,151)"/>
<path d="M0 0 C1.69921875 1.19140625 1.69921875 1.19140625 3 3 C3.29296875 5.69921875 3.29296875 5.69921875 3.1875 8.6875 C3.16042969 9.68136719 3.13335937 10.67523438 3.10546875 11.69921875 C3.07066406 12.45847656 3.03585938 13.21773437 3 14 C2.67 14 2.34 14 2 14 C1.9175 12.741875 1.835 11.48375 1.75 10.1875 C1.37730266 7.3080301 1.19058025 6.23293142 -0.6875 3.9375 C-3.80104932 2.67525028 -5.79862796 3.14630079 -9 4 C-10.66342837 5.66342837 -10.36048097 7.7825709 -10.5625 10.0625 C-10.64628906 10.98160156 -10.73007813 11.90070313 -10.81640625 12.84765625 C-10.87699219 13.55792969 -10.93757812 14.26820313 -11 15 C-11.33 15 -11.66 15 -12 15 C-12 10.05 -12 5.1 -12 0 C-7.2774166 -0.94451668 -4.61516651 -1.02559256 0 0 Z " fill="#4D7655" transform="translate(143,151)"/>
<path d="M0 0 C3.0625 0.3125 3.0625 0.3125 4.9375 1.5625 C6.0625 3.3125 6.0625 3.3125 6.0625 7.3125 C2.4325 7.3125 -1.1975 7.3125 -4.9375 7.3125 C-4.9375 0.52526596 -4.9375 0.52526596 0 0 Z " fill="#F3F5F3" transform="translate(158.9375,152.6875)"/>
<path d="M0 0 C6.04028569 6.04028569 8.82280012 15.75960081 10 24 C9.34 24.33 8.68 24.66 8 25 C8 23.35 8 21.7 8 20 C7.34 20 6.68 20 6 20 C4.35 16.7 2.7 13.4 1 10 C0.67 11.65 0.34 13.3 0 15 C-0.33 15 -0.66 15 -1 15 C-1 12.69 -1 10.38 -1 8 C-0.01 8 0.98 8 2 8 C1.67 7.4225 1.34 6.845 1 6.25 C0 4 0 4 0 0 Z " fill="#E7F0D1" transform="translate(198,61)"/>
<path d="M0 0 C-0.35698503 2.64168921 -0.752308 4.60890736 -2.1875 6.875 C-4 8 -4 8 -7.1875 7.6875 C-8.115625 7.460625 -9.04375 7.23375 -10 7 C-10.1875 4.625 -10.1875 4.625 -10 2 C-6.3558226 -0.4294516 -4.28758728 -0.16179575 0 0 Z " fill="#EDF1ED" transform="translate(288,162)"/>
<path d="M0 0 C0.66 0 1.32 0 2 0 C6.09270972 4.57420498 6.3903378 7.97682032 6.140625 14.0234375 C6.09421875 14.67570312 6.0478125 15.32796875 6 16 C0 10 0 10 -0.09765625 7.71484375 C-0.08605469 6.79832031 -0.07445312 5.88179687 -0.0625 4.9375 C-0.05347656 4.01839844 -0.04445312 3.09929688 -0.03515625 2.15234375 C-0.02355469 1.44207031 -0.01195312 0.73179688 0 0 Z " fill="#AECD66" transform="translate(191,15)"/>
<path d="M0 0 C0.25 2.3125 0.25 2.3125 0 5 C-1.6875 6.875 -1.6875 6.875 -4 8 C-6.75 7.6875 -6.75 7.6875 -9 7 C-8.67 5.02 -8.34 3.04 -8 1 C-5.07175348 0.02391783 -3.04386724 -0.08226668 0 0 Z " fill="#F3F5F3" transform="translate(112,162)"/>
<path d="M0 0 C0.25 2.3125 0.25 2.3125 0 5 C-1.6875 6.875 -1.6875 6.875 -4 8 C-6.75 7.6875 -6.75 7.6875 -9 7 C-8.67 5.02 -8.34 3.04 -8 1 C-5.07175348 0.02391783 -3.04386724 -0.08226668 0 0 Z " fill="#F3F6F4" transform="translate(70,162)"/>
<path d="M0 0 C-1.4980087 3.81311305 -3.62648024 5.72483551 -7 8 C-9.8125 8.75 -9.8125 8.75 -12 9 C-11.6655974 5.90677596 -11.4404882 4.41112232 -9.125 2.25 C-5.84761421 0.32212601 -3.85519553 0 0 0 Z " fill="#B4D170" transform="translate(139,6)"/>
<path d="M0 0 C0.33 0 0.66 0 1 0 C1 8.25 1 16.5 1 25 C1.66 25 2.32 25 3 25 C3.33 25.66 3.66 26.32 4 27 C7.02934491 27.65772428 7.02934491 27.65772428 10 28 C10 28.99 10 29.98 10 31 C4.65291191 31.48609892 4.65291191 31.48609892 1.82128906 29.37792969 C-0.53912395 26.29610359 -0.46328362 24.55403202 -0.390625 20.703125 C-0.37773437 19.49785156 -0.36484375 18.29257813 -0.3515625 17.05078125 C-0.31804688 15.79652344 -0.28453125 14.54226562 -0.25 13.25 C-0.23195313 11.98027344 -0.21390625 10.71054688 -0.1953125 9.40234375 C-0.14817153 6.26746923 -0.08237664 3.1341144 0 0 Z " fill="#729378" transform="translate(31,141)"/>
<path d="M0 0 C6.39431616 0.35523979 6.39431616 0.35523979 8.9375 3.0625 C9.288125 3.701875 9.63875 4.34125 10 5 C9.34 5 8.68 5 8 5 C8 10.61 8 16.22 8 22 C7.67 22 7.34 22 7 22 C6.67 16.39 6.34 10.78 6 5 C0.53915739 3.48534976 0.53915739 3.48534976 -2 5 C-2.66 4.67 -3.32 4.34 -4 4 C-3.67 3.01 -3.34 2.02 -3 1 C-2.34 1 -1.68 1 -1 1 C-0.67 0.67 -0.34 0.34 0 0 Z " fill="#6C8E73" transform="translate(247,150)"/>
<path d="M0 0 C0 0.99 0 1.98 0 3 C-0.84304687 2.97679687 -1.68609375 2.95359375 -2.5546875 2.9296875 C-3.65039062 2.91164062 -4.74609375 2.89359375 -5.875 2.875 C-6.96554688 2.85179687 -8.05609375 2.82859375 -9.1796875 2.8046875 C-12.1371051 2.69939466 -12.1371051 2.69939466 -14 5 C-14.64767793 7.57061311 -14.64767793 7.57061311 -15 10 C-15.33 10 -15.66 10 -16 10 C-16.48073155 2.66884389 -16.48073155 2.66884389 -14.5625 0 C-9.8025795 -1.85752995 -4.80240162 -1.60080054 0 0 Z " fill="#527A5A" transform="translate(26,140)"/>
<path d="M0 0 C0.33 0.66 0.66 1.32 1 2 C1.99 2 2.98 2 4 2 C4 3.98 4 5.96 4 8 C3.34 6.68 2.68 5.36 2 4 C-1.4364867 9.63735071 -1.4364867 9.63735071 -3 16 C-5 14 -5 14 -5.4375 10.8125 C-4.86520576 5.82536451 -3.14087292 3.84756932 0 0 Z " fill="#EDF3DD" transform="translate(100,67)"/>
<path d="M0 0 C0.33 0 0.66 0 1 0 C1.07347656 1.03060547 1.07347656 1.03060547 1.1484375 2.08203125 C1.22320312 2.98308594 1.29796875 3.88414063 1.375 4.8125 C1.44460937 5.70582031 1.51421875 6.59914063 1.5859375 7.51953125 C1.86645036 10.24398499 1.86645036 10.24398499 4 13 C3.75 16.125 3.75 16.125 3 19 C2.34 19.33 1.68 19.66 1 20 C0.01 17.03 -0.98 14.06 -2 11 C-2.66 11.99 -3.32 12.98 -4 14 C-4 12.35 -4 10.7 -4 9 C-3.01 8.67 -2.02 8.34 -1 8 C-0.67 5.36 -0.34 2.72 0 0 Z " fill="#E7F0D1" transform="translate(198,76)"/>
<path d="M0 0 C0 3.50051525 -0.52511319 4.0126916 -2.75 6.5625 C-3.26046875 7.16191406 -3.7709375 7.76132812 -4.296875 8.37890625 C-6.09837269 10.09363455 -7.75304542 10.96749253 -10 12 C-10.70125 12.53625 -11.4025 13.0725 -12.125 13.625 C-14 15 -14 15 -16 15 C-16 13.68 -16 12.36 -16 11 C-14.845 10.484375 -13.69 9.96875 -12.5 9.4375 C-7.65073659 7.03884649 -3.90567606 3.69792733 0 0 Z " fill="#F1F6E4" transform="translate(116,32)"/>
<path d="M0 0 C2.875 2 2.875 2 5 4 C4.42655063 6.86724686 4.1385485 7.8614515 2 10 C1.34 8.02 0.68 6.04 0 4 C-2.97 4 -5.94 4 -9 4 C-8.67 3.01 -8.34 2.02 -8 1 C-5.14675563 -0.42662219 -3.16545451 -0.31033868 0 0 Z " fill="#598061" transform="translate(110,150)"/>
<path d="M0 0 C2.875 2 2.875 2 5 4 C4.42655063 6.86724686 4.1385485 7.8614515 2 10 C1.34 8.02 0.68 6.04 0 4 C-2.97 4 -5.94 4 -9 4 C-8.67 3.01 -8.34 2.02 -8 1 C-5.14675563 -0.42662219 -3.16545451 -0.31033868 0 0 Z " fill="#5A8061" transform="translate(68,150)"/>
<path d="M0 0 C0.33 0.99 0.66 1.98 1 3 C1.99 2.67 2.98 2.34 4 2 C4 2.66 4 3.32 4 4 C3.34 4 2.68 4 2 4 C1.34 7.96 0.68 11.92 0 16 C-0.99 15.01 -1.98 14.02 -3 13 C-2.73913095 8.39131346 -1.58042602 4.31983111 0 0 Z " fill="#E4EECC" transform="translate(102,81)"/>
<path d="M0 0 C0.66 0.33 1.32 0.66 2 1 C2 6.94 2 12.88 2 19 C1.01 19 0.02 19 -1 19 C-2.6875 17 -2.6875 17 -4 15 C-3.34 14.34 -2.68 13.68 -2 13 C-0.14967326 9.97219261 0.22870869 7.77609552 0.125 4.25 C0.10695313 3.45078125 0.08890625 2.6515625 0.0703125 1.828125 C0.04710937 1.22484375 0.02390625 0.6215625 0 0 Z " fill="#719278" transform="translate(289,153)"/>
<path d="M0 0 C0.33 0 0.66 0 1 0 C1.05382106 2.62527189 1.09358313 5.24944713 1.125 7.875 C1.14175781 8.62136719 1.15851563 9.36773437 1.17578125 10.13671875 C1.1933959 12.09194461 1.10320189 14.04742021 1 16 C0.34 16.66 -0.32 17.32 -1 18 C-1.66 17.34 -2.32 16.68 -3 16 C-4.98821313 15.60235737 -6.98944339 15.26224651 -9 15 C-8.67 14.01 -8.34 13.02 -8 12 C-2.125 12.875 -2.125 12.875 -1 14 C-0.67 9.38 -0.34 4.76 0 0 Z " fill="#628669" transform="translate(92,138)"/>
<path d="M0 0 C0.66 0.33 1.32 0.66 2 1 C1.51660156 1.34804687 1.03320312 1.69609375 0.53515625 2.0546875 C-1.74685984 4.94640255 -1.4469598 7.49480148 -1.5625 11.125 C-1.63993852 13.41999602 -1.76919539 15.71532656 -2 18 C-2.66 18.33 -3.32 18.66 -4 19 C-4.10826289 16.5821288 -4.18739789 14.16912444 -4.25 11.75 C-4.28351563 11.06808594 -4.31703125 10.38617188 -4.3515625 9.68359375 C-4.4215705 6.07818187 -4.29151719 4.35931188 -1.984375 1.515625 C-1.32953125 1.01546875 -0.6746875 0.5153125 0 0 Z " fill="#D1DBD3" transform="translate(179,153)"/>
<path d="M0 0 C0.33 0.66 0.66 1.32 1 2 C1.99 2.33 2.98 2.66 4 3 C3.39542969 3.24492188 2.79085937 3.48984375 2.16796875 3.7421875 C-0.3931028 5.22807046 -1.2369366 6.57164234 -2.6875 9.125 C-3.43703355 10.42914196 -4.20224795 11.72478297 -5 13 C-5.33 13 -5.66 13 -6 13 C-6 10.36 -6 7.72 -6 5 C-5.195625 4.731875 -4.39125 4.46375 -3.5625 4.1875 C-2.716875 3.795625 -1.87125 3.40375 -1 3 C-0.67 2.01 -0.34 1.02 0 0 Z " fill="#EAF2D8" transform="translate(101,53)"/>
<path d="M0 0 C0.66 0 1.32 0 2 0 C2.33 3.96 2.66 7.92 3 12 C2.01 12.495 2.01 12.495 1 13 C0.34 11.35 -0.32 9.7 -1 8 C-2.32 8.99 -3.64 9.98 -5 11 C-4.731875 10.484375 -4.46375 9.96875 -4.1875 9.4375 C-2.67650593 6.33598585 -1.34427274 3.17737194 0 0 Z " fill="#C5DB92" transform="translate(189,97)"/>
<path d="M0 0 C1.485 0.99 1.485 0.99 3 2 C3.29296875 4.8203125 3.29296875 4.8203125 3.1875 8.125 C3.16042969 9.22070312 3.13335937 10.31640625 3.10546875 11.4453125 C3.07066406 12.28835937 3.03585938 13.13140625 3 14 C0.984375 12.85546875 0.984375 12.85546875 -1 11 C-1.171875 8.30078125 -1.171875 8.30078125 -0.75 5.3125 C-0.62109375 4.31863281 -0.4921875 3.32476562 -0.359375 2.30078125 C-0.24078125 1.54152344 -0.1221875 0.78226562 0 0 Z " fill="#EEF4DF" transform="translate(108,96)"/>
<path d="M0 0 C3.41266885 2.27511257 3.54170632 3.3542658 5 7 C5.99 7.66 6.98 8.32 8 9 C8 9.66 8 10.32 8 11 C7.01 11.33 6.02 11.66 5 12 C2.3125 10.5625 2.3125 10.5625 0 8 C-0.43770084 5.19764706 -0.23839891 2.86078698 0 0 Z " fill="#5D8264" transform="translate(9,143)"/>
<path d="M0 0 C5 6.36363636 5 6.36363636 5 11 C3.125 10.8125 3.125 10.8125 1 10 C-0.68644932 7.10894403 -1.06919665 5.51897488 -0.625 2.1875 C-0.41875 1.465625 -0.2125 0.74375 0 0 Z " fill="#64876B" transform="translate(211,161)"/>
<path d="M0 0 C0 0.66 0 1.32 0 2 C-0.78375 2.28875 -1.5675 2.5775 -2.375 2.875 C-5.09671632 3.84912254 -5.09671632 3.84912254 -7 6 C-7.45811675 7.97235333 -7.45811675 7.97235333 -7.625 10.125 C-7.74875 11.40375 -7.8725 12.6825 -8 14 C-8.33 14 -8.66 14 -9 14 C-9.08114106 12.22992286 -9.13925505 10.45877902 -9.1875 8.6875 C-9.22230469 7.70136719 -9.25710937 6.71523437 -9.29296875 5.69921875 C-9 3 -9 3 -7.6875 1.15625 C-5.1703167 -0.5684867 -2.96507269 -0.19767151 0 0 Z " fill="#46704E" transform="translate(229,151)"/>
<path d="M0 0 C0 0.66 0 1.32 0 2 C0.66 2.33 1.32 2.66 2 3 C1.375 5.4375 1.375 5.4375 0 8 C-3.125 8.8125 -3.125 8.8125 -6 9 C-4.68 6.69 -3.36 4.38 -2 2 C-2.99 1.67 -3.98 1.34 -5 1 C-2 0 -2 0 0 0 Z " fill="#E0ECC4" transform="translate(169,117)"/>
<path d="M0 0 C-0.99 0.33 -1.98 0.66 -3 1 C-3 1.66 -3 2.32 -3 3 C-5.31 3.66 -7.62 4.32 -10 5 C-10.33 3.68 -10.66 2.36 -11 1 C-7.2297564 -1.56376565 -4.32597804 -0.83191885 0 0 Z " fill="#F4F8EA" transform="translate(140,129)"/>
<path d="M0 0 C6.70459519 5.0940919 6.70459519 5.0940919 7.9375 8.875 C7.958125 9.57625 7.97875 10.2775 8 11 C4.83884224 9.63016497 4.0072908 9.0109362 2 6 C1.01 6 0.02 6 -1 6 C-0.67 4.02 -0.34 2.04 0 0 Z " fill="#F1F6E5" transform="translate(197,51)"/>
<path d="M0 0 C1.80125336 2.70188004 3.00243753 4.93057703 4 8 C3.67 8.99 3.34 9.98 3 11 C1.68 10.34 0.36 9.68 -1 9 C-1.125 2.25 -1.125 2.25 0 0 Z " fill="#EDF3DD" transform="translate(119,109)"/>
<path d="M0 0 C0.66 0 1.32 0 2 0 C3.55938978 3.11877956 3.3607834 5.57255771 3 9 C0.5 10.9375 0.5 10.9375 -2 12 C-1.67 10.948125 -1.34 9.89625 -1 8.8125 C-0.16033218 5.61126643 0.19750904 3.2588992 0 0 Z " fill="#F2F7E7" transform="translate(180,108)"/>
<path d="M0 0 C0.33 0 0.66 0 1 0 C1.05447047 1.41623216 1.09300508 2.83308191 1.125 4.25 C1.14820313 5.03890625 1.17140625 5.8278125 1.1953125 6.640625 C0.9828378 9.20731941 0.28654105 10.7916067 -1 13 C-1.66 12.67 -2.32 12.34 -3 12 C-3.144375 11.236875 -3.28875 10.47375 -3.4375 9.6875 C-4.05464716 6.73890802 -5.06882531 5.26703116 -7 3 C-6.01 3 -5.02 3 -4 3 C-2.3125 5 -2.3125 5 -1 7 C-0.67 4.69 -0.34 2.38 0 0 Z " fill="#BED784" transform="translate(197,23)"/>
<path d="M0 0 C4 4.75 4 4.75 4 7 C1.36 7.33 -1.28 7.66 -4 8 C-4 8.66 -4 9.32 -4 10 C-5.32 10 -6.64 10 -8 10 C-8 9.34 -8 8.68 -8 8 C-5.36 7.01 -2.72 6.02 0 5 C-0.33 4.34 -0.66 3.68 -1 3 C-0.67 2.01 -0.34 1.02 0 0 Z " fill="#C7DC94" transform="translate(174,12)"/>
<path d="M0 0 C0.33 0 0.66 0 1 0 C1.33 3.96 1.66 7.92 2 12 C-0.475 13.485 -0.475 13.485 -3 15 C-3 14.34 -3 13.68 -3 13 C-4.32 12.67 -5.64 12.34 -7 12 C-6.195625 11.87625 -5.39125 11.7525 -4.5625 11.625 C-3.716875 11.41875 -2.87125 11.2125 -2 11 C-0.85185003 8.70370006 -0.69230191 6.92301914 -0.4375 4.375 C-0.35371094 3.55773437 -0.26992187 2.74046875 -0.18359375 1.8984375 C-0.12300781 1.27195313 -0.06242188 0.64546875 0 0 Z " fill="#6D8F74" transform="translate(233,157)"/>
<path d="M0 0 C0.66 0 1.32 0 2 0 C1.32829194 3.8063457 0.27253436 7.35206816 -1 11 C-1.33 10.01 -1.66 9.02 -2 8 C-2.33 7.67 -2.66 7.34 -3 7 C-3.99 7.495 -3.99 7.495 -5 8 C-3.63055898 5.05043472 -2.12169591 2.47531189 0 0 Z " fill="#BDD681" transform="translate(102,56)"/>
<path d="M0 0 C1.95766281 -0.08082094 3.91626728 -0.13910778 5.875 -0.1875 C7.51082031 -0.23970703 7.51082031 -0.23970703 9.1796875 -0.29296875 C10.11039063 -0.19628906 11.04109375 -0.09960938 12 0 C12.66 0.99 13.32 1.98 14 3 C12.41753293 3.08153933 10.83383727 3.13943557 9.25 3.1875 C8.36828125 3.22230469 7.4865625 3.25710937 6.578125 3.29296875 C3.55328417 2.94923684 2.24416398 1.99772541 0 0 Z " fill="#DFEBC2" transform="translate(172,22)"/>
<path d="M0 0 C-0.66 1.32 -1.32 2.64 -2 4 C-4.97 4 -7.94 4 -11 4 C-11.33 3.01 -11.66 2.02 -12 1 C-9.98177083 1.03255208 -7.96354167 1.06510417 -5.9453125 1.09765625 C-3.67210333 0.98353932 -2.2885712 0 0 0 Z " fill="#46714F" transform="translate(167,168)"/>
<path d="M0 0 C0.66 1.32 1.32 2.64 2 4 C2.99 4.33 3.98 4.66 5 5 C4.01 7.64 3.02 10.28 2 13 C1.34 13 0.68 13 0 13 C0 8.71 0 4.42 0 0 Z " fill="#C0D888" transform="translate(198,91)"/>
<path d="M0 0 C0.33 0 0.66 0 1 0 C1.19672365 1.72814161 1.38196799 3.45759197 1.5625 5.1875 C1.66691406 6.15042969 1.77132812 7.11335937 1.87890625 8.10546875 C1.99758751 10.94233377 1.67765639 13.25423671 1 16 C-1.64 15.34 -4.28 14.68 -7 14 C-7 13.67 -7 13.34 -7 13 C-5.02 12.34 -3.04 11.68 -1 11 C-0.67 7.37 -0.34 3.74 0 0 Z " fill="#6C8E73" transform="translate(92,156)"/>
<path d="M0 0 C2.38672669 2.96283313 4.7353371 5.94270509 7 9 C5.35 9 3.7 9 2 9 C1.01 6.36 0.02 3.72 -1 1 C-0.67 0.67 -0.34 0.34 0 0 Z " fill="#EDF4DC" transform="translate(131,117)"/>
<path d="M0 0 C-0.33 1.98 -0.66 3.96 -1 6 C-1.66 5.34 -2.32 4.68 -3 4 C-5.31 5.98 -7.62 7.96 -10 10 C-8.71596412 5.50587442 -5.23012555 0 0 0 Z " fill="#B8D378" transform="translate(124,8)"/>
<path d="M0 0 C0.66 0.33 1.32 0.66 2 1 C1.69320312 1.56203125 1.38640625 2.1240625 1.0703125 2.703125 C-0.02957585 5.06346934 -0.60095851 7.20465562 -1.125 9.75 C-1.29257813 10.54921875 -1.46015625 11.3484375 -1.6328125 12.171875 C-1.75398438 12.77515625 -1.87515625 13.3784375 -2 14 C-2.33 14 -2.66 14 -3 14 C-3.08114106 12.22992286 -3.13925505 10.45877902 -3.1875 8.6875 C-3.22230469 7.70136719 -3.25710937 6.71523437 -3.29296875 5.69921875 C-3 3 -3 3 -1.48828125 1.14453125 C-0.99714844 0.76683594 -0.50601563 0.38914063 0 0 Z " fill="#47714F" transform="translate(82,151)"/>
<path d="M0 0 C-0.33 1.98 -0.66 3.96 -1 6 C-1.99 6 -2.98 6 -4 6 C-5.65503095 7.0772721 -5.65503095 7.0772721 -7.1875 8.5 C-8.115625 9.325 -9.04375 10.15 -10 11 C-8.64763423 8.06120516 -7.10057341 5.70767089 -5 3.25 C-4.484375 2.63640625 -3.96875 2.0228125 -3.4375 1.390625 C-2 0 -2 0 0 0 Z " fill="#B8D478" transform="translate(181,109)"/>
<path d="M0 0 C2.9375 1.25 2.9375 1.25 6 3 C6.875 5.1875 6.875 5.1875 7 7 C6.46375 6.690625 5.9275 6.38125 5.375 6.0625 C2.6015043 4.82172561 -0.00042837 4.4090325 -3 4 C-3 3.34 -3 2.68 -3 2 C-2.01 2 -1.02 2 0 2 C0 1.34 0 0.68 0 0 Z " fill="#E9F1D5" transform="translate(195,41)"/>
<path d="M0 0 C0.33 0.99 0.66 1.98 1 3 C-0.1875 4.5 -0.1875 4.5 -2 6 C-4.6875 6.1875 -4.6875 6.1875 -7 6 C-7.33 5.34 -7.66 4.68 -8 4 C-7.236875 3.71125 -6.47375 3.4225 -5.6875 3.125 C-2.84970692 2.03730987 -2.84970692 2.03730987 0 0 Z " fill="#44704D" transform="translate(144,166)"/>
<path d="M0 0 C2.97 0.33 5.94 0.66 9 1 C9 1.99 9 2.98 9 4 C5.7 3.34 2.4 2.68 -1 2 C-0.67 1.34 -0.34 0.68 0 0 Z " fill="#46704E" transform="translate(17,139)"/>
<path d="M0 0 C2.45898655 -0.08076963 4.91533742 -0.14037143 7.375 -0.1875 C8.07367188 -0.21263672 8.77234375 -0.23777344 9.4921875 -0.26367188 C11.5234375 -0.29296875 11.5234375 -0.29296875 15 0 C15.66 0.99 16.32 1.98 17 3 C11.72 3 6.44 3 1 3 C0.67 2.01 0.34 1.02 0 0 Z " fill="#C9DE9A" transform="translate(96,113)"/>
<path d="M0 0 C6.52307692 0.49230769 6.52307692 0.49230769 8.9375 3.0625 C9.288125 3.701875 9.63875 4.34125 10 5 C9.34 5.66 8.68 6.32 8 7 C6.62437146 5.71034824 5.29233607 4.37310707 4 3 C4 2.34 4 1.68 4 1 C2.68 0.67 1.36 0.34 0 0 Z " fill="#5B8162" transform="translate(225,150)"/>
<path d="M0 0 C0.33 0 0.66 0 1 0 C1 2.31 1 4.62 1 7 C1.99 7.33 2.98 7.66 4 8 C3.67 9.65 3.34 11.3 3 13 C1.68 12.34 0.36 11.68 -1 11 C-0.67 10.01 -0.34 9.02 0 8 C0.06665376 6.60560336 0.08538199 5.20830125 0.0625 3.8125 C0.041875 2.554375 0.02125 1.29625 0 0 Z " fill="#BDD681" transform="translate(103,24)"/>
<path d="M0 0 C0.33 0 0.66 0 1 0 C2.125 7.75 2.125 7.75 1 10 C-0.99609375 10.484375 -0.99609375 10.484375 -3.4375 10.75 C-4.64212891 10.89695312 -4.64212891 10.89695312 -5.87109375 11.046875 C-8 11 -8 11 -10 9 C-5.545 8.505 -5.545 8.505 -1 8 C-0.67 5.36 -0.34 2.72 0 0 Z " fill="#BAD47C" transform="translate(186,16)"/>
<path d="M0 0 C0.66 0 1.32 0 2 0 C2.66 2.97 3.32 5.94 4 9 C2.68 8.34 1.36 7.68 0 7 C0 4.69 0 2.38 0 0 Z " fill="#557C5C" transform="translate(152,162)"/>
<path d="M0 0 C0.99 0.33 1.98 0.66 3 1 C2.34 1.66 1.68 2.32 1 3 C0.67 3.66 0.34 4.32 0 5 C-1 7 -1 7 -3 9 C-3.1875 5.625 -3.1875 5.625 -3 2 C-2.01 1.34 -1.02 0.68 0 0 Z " fill="#63876A" transform="translate(278,161)"/>
<path d="M0 0 C-0.11409593 1.45922693 -0.24165544 2.91740598 -0.375 4.375 C-0.44460937 5.18710938 -0.51421875 5.99921875 -0.5859375 6.8359375 C-1 9 -1 9 -3 11 C-3 8.69 -3 6.38 -3 4 C-3.66 3.67 -4.32 3.34 -5 3 C-2.25 0 -2.25 0 0 0 Z " fill="#BED783" transform="translate(218,59)"/>
<path d="M0 0 C0.33 0 0.66 0 1 0 C1 2.97 1 5.94 1 9 C0.01 8.01 -0.98 7.02 -2 6 C-1.57894737 1.57894737 -1.57894737 1.57894737 0 0 Z " fill="#F5F8EA" transform="translate(101,88)"/>
<path d="M0 0 C0.66 0.33 1.32 0.66 2 1 C-0.31 3.31 -2.62 5.62 -5 8 C-5.33 7.34 -5.66 6.68 -6 6 C-2.25 1.125 -2.25 1.125 0 0 Z " fill="#B8D479" transform="translate(160,120)"/>
<path d="M0 0 C0.33 0 0.66 0 1 0 C1 2.31 1 4.62 1 7 C0.01 7 -0.98 7 -2 7 C-2.66 5.35 -3.32 3.7 -4 2 C-3.34 1.67 -2.68 1.34 -2 1 C-1.67 1.66 -1.34 2.32 -1 3 C-0.67 2.01 -0.34 1.02 0 0 Z " fill="#BDD682" transform="translate(102,93)"/>
<path d="M0 0 C2.4375 0.8125 2.4375 0.8125 5 2 C5.33 2.99 5.66 3.98 6 5 C5.01 5.66 4.02 6.32 3 7 C2.34 6.67 1.68 6.34 1 6 C0.375 2.9375 0.375 2.9375 0 0 Z " fill="#CFE1A4" transform="translate(95,43)"/>
<path d="M0 0 C1.98 0.99 1.98 0.99 4 2 C4 3.98 4 5.96 4 8 C3.01 7.67 2.02 7.34 1 7 C0.67 4.69 0.34 2.38 0 0 Z " fill="#63876A" transform="translate(164,153)"/>
<path d="M0 0 C-1.65 1.32 -3.3 2.64 -5 4 C-5 3.34 -5 2.68 -5 2 C-5.99 1.67 -6.98 1.34 -8 1 C-4.93251126 -0.86240388 -3.40254489 -1.2151946 0 0 Z " fill="#BFD785" transform="translate(116,33)"/>
<path d="M0 0 C2.64 0.33 5.28 0.66 8 1 C7.67 1.66 7.34 2.32 7 3 C5.02 3 3.04 3 1 3 C0.67 2.01 0.34 1.02 0 0 Z " fill="#406C49" transform="translate(82,169)"/>
<path d="M0 0 C-3.45214853 2.30143236 -4.23479324 2.13833854 -8.1875 1.625 C-9.53908203 1.45871094 -9.53908203 1.45871094 -10.91796875 1.2890625 C-11.60503906 1.19367188 -12.29210937 1.09828125 -13 1 C-13 0.67 -13 0.34 -13 0 C-11.58456585 -0.19658808 -10.16755969 -0.38187546 -8.75 -0.5625 C-7.96109375 -0.66691406 -7.1721875 -0.77132812 -6.359375 -0.87890625 C-3.99467126 -1.00027349 -2.2488963 -0.69633257 0 0 Z " fill="#65896C" transform="translate(213,141)"/>
<path d="M0 0 C1.485 0.99 1.485 0.99 3 2 C3.66 1.34 4.32 0.68 5 0 C5 1.65 5 3.3 5 5 C4.01 5 3.02 5 2 5 C1.34 4.34 0.68 3.68 0 3 C0 2.01 0 1.02 0 0 Z " fill="#B6D173" transform="translate(107,107)"/>
<path d="M0 0 C-0.66 1.32 -1.32 2.64 -2 4 C-5 4 -5 4 -7 3 C-3.375 0 -3.375 0 0 0 Z " fill="#C1D989" transform="translate(109,43)"/>
<path d="M0 0 C1.32 0 2.64 0 4 0 C4 0.66 4 1.32 4 2 C1.625 3.6875 1.625 3.6875 -1 5 C-1.66 4.67 -2.32 4.34 -3 4 C-1.75 2 -1.75 2 0 0 Z " fill="#EEF4DF" transform="translate(108,31)"/>
</svg>
